<svg xmlns="http://www.w3.org/2000/svg" viewBox="0 0 383.83 212.81"><defs><style>.a,.c{fill:#fff;}.a,.b{fill-rule:evenodd;}.b{fill:#b0b8ba;}.c{font-size:21px;font-family:Times New Roman;}.d{fill:none;}</style></defs><title>Jana Beauty Logo White (R)</title><path class="a" d="M502.51,336.67h0.56c0.88,3.47,15.57,39.11,15.57,39.11h-3s-3.16-8.55-5-12.47H494.8c-1.88,4-5.19,12.47-5.19,12.47H487S497.53,349.9,502.51,336.67Zm-6.72,23.83h14l-6.73-16.69h-0.56Z" transform="translate(-242.2 -216.1)"/><path class="a" d="M447.28,355.45c4.19,1.53,7.43,4.6,7.43,9.68,0,5.93-5,10.33-9,10.65H432.56V337.94s7.94-.09,11.13,0c4.68,0.92,8.39,5.44,7.52,11.79a9.08,9.08,0,0,1-1.54,3.78A7.64,7.64,0,0,1,447.28,355.45Zm-1.69-1.68a6.62,6.62,0,0,0,2.38-2.46,11,11,0,0,0-.14-7.2,7.87,7.87,0,0,0-6.3-3.65c-1.81-.17-6.32,0-6.32,0v14.43S443.43,355.24,445.59,353.77ZM445.45,373c2.36-.24,7.16-4.12,6.45-8.84a8,8,0,0,0-3-5.18,6.68,6.68,0,0,0-3.29-1.22,97,97,0,0,0-10.44-.19v15.57S442.15,373.13,445.45,373Z" transform="translate(-242.2 -216.1)"/><path class="a" d="M481.2,337.94v2.52H465.78l0,13.31h15.09v2.67H465.83v16.7H481.2v2.66H462.84V337.94H481.2Z" transform="translate(-242.2 -216.1)"/><path class="a" d="M524.8,337.94h2.67v13.75c0,6.77-.43,15.73,1.67,18.21a19.89,19.89,0,0,0,4.06,3.09,11.24,11.24,0,0,0,3.79.7,13.4,13.4,0,0,0,7.84-2.38,8.93,8.93,0,0,0,2.67-5.18c0.65-4.06.13-9.16,0.13-14V337.94h2.68c-0.25,9.94.5,20.87-.44,30.15a11.84,11.84,0,0,1-6,6.73c-2.81,1.34-8,2.11-11.5.55s-6.68-4.35-7.57-8.27C524.49,357.77,524.8,337.94,524.8,337.94Z" transform="translate(-242.2 -216.1)"/><path class="a" d="M556.64,337.94h22v2.52h-9.41c-0.25,5.61-.13,11.79-0.13,17.81v17.52h-2.94V340.46h-9.53v-2.52Z" transform="translate(-242.2 -216.1)"/><path class="a" d="M581.08,337.92h3.17s7,12.88,10.79,18.9c3.61-6.27,7.24-12.89,11.08-18.9h2.81c-0.5.76-12.49,21.42-12.49,21.42v16.43h-2.81v-16.4C589.26,352.44,581.08,337.92,581.08,337.92Z" transform="translate(-242.2 -216.1)"/><path class="a" d="M626,310v0.41c-6.75-4.31-13.52-8.62-21.31-11.91a28.48,28.48,0,0,0-7.3-3.23c3.59,8.52,10.4,26.49,10.4,26.49H595.74s-7.92-21.89-12.2-32.09c-7.27-2.63-15-4.78-22.86-6.88-5.16,13.09-15.84,39-15.84,39H534.48s11.38-27.26,16.83-41.06A285.6,285.6,0,0,0,506.44,275c-0.19,17.1-.28,51.88-0.28,51.88s-31.77-34-47.8-50.89a113.09,113.09,0,0,0-15.56,1.56c-0.22,14.51-.43,43.71-0.43,43.71H431.72v-42.2c-15,2.59-29.84,5.54-43.47,9.49,0.49,2.9,12.62,32.71,12.62,32.71H389s-7.68-20-11.36-30c-10.68,3.11-20.95,6.63-31.26,10.08-2.37,7.19-8.14,20.47-8.14,20.47l-10.51-.13s5.43-11.06,7.17-16.56c-10.08,4-21.19,8-30.73,12.62-0.75,12.13.75,26.2-1.4,36.75-0.1.49-1.18,4.71-1.68,6.45-0.68,2.35-3.74,10.71-4.34,12.21a167.1,167.1,0,0,1-10.95,21c-1.56,2.65-10.74,16-12.19,17.94-4.32,5.66-8.66,11.46-13.46,16.82H260c8.29-15.18,16-30,22.7-46.4,0.83-2,1.75-4.1,2.53-6.17,1.18-3.14,2.34-6.54,3.36-9.67,0.55-1.69,2.33-8.4,2.81-10.09,4.12-14.58,2.25-140.45,2.25-140.45l10.22,0s0.38,66.32.28,99.28c10.48-5.42,21.71-10.08,32.67-15,9.64-22.56,18.92-46.47,28.46-69.13,2.79,6.19,19.39,49.39,20.62,51.34,14.3-4.25,29.82-7.31,45.84-9.84,0.08-14.25-.19-28.89.13-42.9,12.2,13,24,26.48,36.31,39.38,9.58-.27,18.73-0.28,28.17.16,0.3-11,.07-22.48.14-33.66h10v34.35a282.19,282.19,0,0,1,46.12,7.58c3.48-7.6,6.45-15.54,9.81-23.27,2.12-4.89,8.73-21.8,9.81-23.14,8.22,20.63,16.28,41.39,24.55,62A169,169,0,0,1,626,310ZM349.28,294.61c8.55-3.12,17.09-6.28,26.22-8.84-3.65-9.48-7.36-18.9-10.8-28.59C364.15,257.33,351.62,288.5,349.28,294.61Zm212.54-14.43c7.22,2.07,14.09,4.49,20.89,7-3.73-10-7.72-19.76-11.21-30h-0.57C568.19,265.12,564.88,272.54,561.82,280.18Zm-119-8.83c3.26-.4,7-0.91,10.47-1.06-0.75-1.12-7.46-8.12-10.32-10.87,0-.07,0-0.17-0.15-0.15v12.07Zm38,3.08c-2.55.25-5.33,0.08-7.57,0.69,7.87,8.2,15.31,16.85,23.13,25.1V274.42C491.2,274.79,485.82,273.93,480.79,274.42Z" transform="translate(-242.2 -216.1)"/><path class="b" d="M431.75,272.72c0,2,.06,4.37.06,6.37a393.51,393.51,0,0,0-43.68,9.36c-0.88-1.84-1.58-4.3-2.46-6.14C400.58,278.67,415.24,274.78,431.75,272.72Z" transform="translate(-242.2 -216.1)"/><path class="b" d="M337,299c4.13-1.39,29.47-11.17,38.4-13.68,0.83,1.73,1.49,4.13,2.22,6-10.82,2.94-21.09,6.43-31.2,10.08-4.09,1.59-8.54,2.82-12.24,4.8-7.5,2.55-17.7,7-26.31,10.78-0.87.38-11.42,5.16-14.87,6.75-17.73,8-34,17-50.8,25.95a554.33,554.33,0,0,1,50.88-30C296.52,317.64,325.9,303.57,337,299Z" transform="translate(-242.2 -216.1)"/><path class="b" d="M458.29,276.06c-4.77,0-10.44,1.07-15.6,1.44,0-2,.13-4.25.13-6.25,3.43-.25,6.64-0.72,10.08-1C453.48,270,456.37,273.66,458.29,276.06Z" transform="translate(-242.2 -216.1)"/><path class="b" d="M506.19,274.81c-0.84-.11-23.4,0-33,0.31A47,47,0,0,1,468,269c9-.46,19-0.25,28.08,0,0.15-.73.24-0.8,0.24,0,3.13,0.31,18.7.38,56.16,8.4a88.67,88.67,0,0,1,9.12,2.16c8.67,2.69,14,4.71,20.88,7.2,4.5,2,9,3.93,13.68,5.76,12.8,6.23,30,17,29.74,17.67-8.63-4.89-18.12-11-28.52-14.87-4.16-1.85-8.66-4.25-13.7-5.68-8.78-2.89-14.91-4.77-23-6.81-2.91-.7-6.27-1.42-9.38-2.09C536.16,278.1,533.17,277.92,506.19,274.81Z" transform="translate(-242.2 -216.1)"/><text class="c" transform="translate(349.91 28.59)">®</text><line class="d" x1="366.73" y1="21.45" x2="366.73" y2="133.53"/></svg>